<svg preserveAspectRatio="none" width="100%" height="100%" overflow="visible" style="display: block;" viewBox="0 0 20 20" fill="none" xmlns="http://www.w3.org/2000/svg">
<g id="Frame">
<path id="Vector" fill-rule="evenodd" clip-rule="evenodd" d="M6.875 5.625C6.875 4.7962 7.20424 4.00134 7.79029 3.41529C8.37634 2.82924 9.1712 2.5 10 2.5C10.8288 2.5 11.6237 2.82924 12.2097 3.41529C12.7958 4.00134 13.125 4.7962 13.125 5.625C13.125 6.4538 12.7958 7.24866 12.2097 7.83471C11.6237 8.42076 10.8288 8.75 10 8.75C9.1712 8.75 8.37634 8.42076 7.79029 7.83471C7.20424 7.24866 6.875 6.4538 6.875 5.625ZM13.125 8.125C13.125 7.46196 13.3884 6.82607 13.8572 6.35723C14.3261 5.88839 14.962 5.625 15.625 5.625C16.288 5.625 16.9239 5.88839 17.3928 6.35723C17.8616 6.82607 18.125 7.46196 18.125 8.125C18.125 8.78804 17.8616 9.42393 17.3928 9.89277C16.9239 10.3616 16.288 10.625 15.625 10.625C14.962 10.625 14.3261 10.3616 13.8572 9.89277C13.3884 9.42393 13.125 8.78804 13.125 8.125ZM1.875 8.125C1.875 7.46196 2.13839 6.82607 2.60723 6.35723C3.07607 5.88839 3.71196 5.625 4.375 5.625C5.03804 5.625 5.67393 5.88839 6.14277 6.35723C6.61161 6.82607 6.875 7.46196 6.875 8.125C6.875 8.78804 6.61161 9.42393 6.14277 9.89277C5.67393 10.3616 5.03804 10.625 4.375 10.625C3.71196 10.625 3.07607 10.3616 2.60723 9.89277C2.13839 9.42393 1.875 8.78804 1.875 8.125ZM5.25833 12.5975C5.76663 11.8009 6.46757 11.1452 7.29635 10.6912C8.12513 10.2372 9.05501 9.99946 10 10C10.7915 9.99928 11.5743 10.1657 12.297 10.4885C13.0197 10.8112 13.6661 11.2829 14.1939 11.8728C14.7217 12.4627 15.119 13.1573 15.3597 13.9114C15.6004 14.6654 15.6792 15.4618 15.5908 16.2483C15.58 16.3461 15.5463 16.4398 15.4925 16.5221C15.4386 16.6043 15.3661 16.6727 15.2808 16.7217C13.6738 17.6438 11.8528 18.1277 10 18.125C8.07917 18.125 6.275 17.615 4.71917 16.7217C4.63391 16.6727 4.5614 16.6043 4.50754 16.5221C4.45367 16.4398 4.41997 16.3461 4.40917 16.2483C4.26921 14.9705 4.56872 13.6831 5.25833 12.5983V12.5975Z" fill="var(--fill-0, #FAFAFA)"/>
<path id="Vector_2" d="M4.23507 11.8785C3.4132 13.1471 3.03028 14.6504 3.14507 16.1577C2.64466 16.0818 2.15249 15.959 1.67507 15.791L1.57923 15.7577C1.49373 15.7273 1.41886 15.6728 1.36369 15.6008C1.30852 15.5288 1.27542 15.4423 1.2684 15.3518L1.26007 15.251C1.2264 14.8326 1.27736 14.4118 1.4099 14.0135C1.54244 13.6153 1.75385 13.2478 2.0315 12.9331C2.30916 12.6183 2.64737 12.3627 3.02597 12.1815C3.40456 12.0003 3.81577 11.8973 4.23507 11.8785ZM16.8551 16.1577C16.9699 14.6504 16.5869 13.1471 15.7651 11.8785C16.1844 11.8973 16.5956 12.0003 16.9742 12.1815C17.3528 12.3627 17.691 12.6183 17.9686 12.9331C18.2463 13.2478 18.4577 13.6153 18.5902 14.0135C18.7228 14.4118 18.7737 14.8326 18.7401 15.251L18.7317 15.3518C18.7246 15.4421 18.6914 15.5284 18.6362 15.6003C18.5811 15.6722 18.5063 15.7265 18.4209 15.7568L18.3251 15.7902C17.8526 15.9568 17.3617 16.081 16.8551 16.1577Z" fill="var(--fill-0, #FAFAFA)"/>
</g>
</svg>
