<svg preserveAspectRatio="none" width="100%" height="100%" overflow="visible" style="display: block;" viewBox="0 0 19 15" fill="none" xmlns="http://www.w3.org/2000/svg">
<g id="Frame">
<path id="Vector" d="M11.5625 6.87498H2.81246C2.12211 6.87498 1.56246 7.43462 1.56246 8.12498V12.5C1.56246 13.1903 2.12211 13.75 2.81246 13.75H11.5625C12.2528 13.75 12.8125 13.1903 12.8125 12.5V8.12498C12.8125 7.43462 12.2528 6.87498 11.5625 6.87498Z" stroke="var(--stroke-0, white)" stroke-width="1.25" stroke-linecap="round" stroke-linejoin="round"/>
<path id="Vector_2" d="M4.06242 6.87498V4.37498C4.06242 3.54618 4.39166 2.75132 4.97772 2.16527C5.56377 1.57922 6.35862 1.24998 7.18742 1.24998C8.01623 1.24998 8.81108 1.57922 9.39713 2.16527C9.98318 2.75132 10.3124 3.54618 10.3124 4.37498V6.87498" stroke="var(--stroke-0, white)" stroke-width="1.25" stroke-linecap="round" stroke-linejoin="round"/>
</g>
</svg>
