<svg width="48" height="31" viewBox="0 0 48 31" fill="none" xmlns="http://www.w3.org/2000/svg">
<g clip-path="url(#clip0_19_4)">
<path d="M6.91895 14.4304L43.8121 6.15234L47.3913 21.8478L10.4982 30.1258L6.91895 14.4304Z" fill="#27104A"/>
<path d="M1.05957 0.320979L38.9883 0.0537109L39.1036 16.1454L1.17481 16.4126L1.05957 0.320979Z" fill="#27104A"/>
<path d="M17.1472 27.8515L15.5044 28.2201L13.5723 19.7469L15.3169 19.3555L16.1164 22.8615C16.2321 22.5679 16.4428 22.308 16.7485 22.0819C17.06 21.8467 17.4196 21.6833 17.8275 21.5918C18.3562 21.4731 18.8422 21.4979 19.2854 21.6662C19.7363 21.8327 20.1196 22.1208 20.4352 22.5303C20.751 22.94 20.9788 23.4519 21.1189 24.0662C21.2504 24.6429 21.2496 25.1789 21.1162 25.6735C20.9887 26.1587 20.7446 26.5678 20.3839 26.9007C20.0307 27.2322 19.586 27.4579 19.0498 27.5782C18.657 27.6664 18.2804 27.6681 17.9198 27.5837C17.5649 27.4901 17.283 27.333 17.0738 27.1118L17.1472 27.8515ZM16.6122 24.9828C16.6754 25.26 16.7884 25.4947 16.9511 25.6866C17.1198 25.8693 17.3198 25.9975 17.5511 26.0718C17.7882 26.1366 18.0427 26.1386 18.3145 26.0775C18.5941 26.0148 18.8182 25.9014 18.9873 25.7376C19.1639 25.572 19.2811 25.3725 19.3391 25.139C19.4045 24.9036 19.4057 24.6475 19.3423 24.3705C19.2792 24.0932 19.167 23.8623 19.0059 23.6781C18.8524 23.492 18.6599 23.362 18.4287 23.2877C18.205 23.212 17.9534 23.2054 17.6739 23.2682C17.402 23.3291 17.174 23.4432 16.9899 23.6106C16.8116 23.7687 16.6859 23.9663 16.613 24.2032C16.5474 24.4382 16.5472 24.6982 16.6122 24.9828Z" fill="#F4F4F4"/>
<path d="M21.8015 23.8436C21.6665 23.2519 21.6809 22.7052 21.8444 22.204C22.0138 21.6935 22.3044 21.2621 22.7163 20.9098C23.1357 20.5558 23.6475 20.311 24.2517 20.1754C24.856 20.0398 25.4204 20.0432 25.9452 20.1853C26.4696 20.3275 26.9153 20.5937 27.2822 20.9839C27.655 21.3649 27.9088 21.8512 28.0438 22.4431C28.1788 23.0349 28.1605 23.5825 27.9896 24.0854C27.8259 24.5868 27.5383 25.0134 27.1264 25.366C26.7144 25.7182 26.2065 25.962 25.6022 26.0976C24.9981 26.2332 24.4299 26.2308 23.8977 26.0902C23.3731 25.9481 22.9244 25.6865 22.5517 25.3055C22.1865 24.9228 21.9366 24.4354 21.8015 23.8436ZM23.555 23.4385C23.6198 23.7231 23.7338 23.9615 23.8966 24.1534C24.0652 24.336 24.2652 24.4645 24.4965 24.5384C24.726 24.605 24.9767 24.6078 25.2487 24.5468C25.5204 24.486 25.7455 24.3763 25.924 24.2182C26.1006 24.0526 26.2217 23.852 26.287 23.6168C26.3506 23.3743 26.3501 23.1104 26.2852 22.8258C26.2204 22.5411 26.1073 22.3067 25.9461 22.1224C25.7849 21.938 25.5897 21.8126 25.3603 21.7459C25.1289 21.6717 24.8773 21.6653 24.6054 21.7263C24.3335 21.7872 24.1093 21.9006 23.9327 22.0662C23.7544 22.2243 23.6287 22.4219 23.5557 22.6588C23.4902 22.8938 23.49 23.1537 23.555 23.4385Z" fill="#F4F4F4"/>
<path d="M31.4416 24.7976C30.845 24.9316 30.3325 24.8771 29.904 24.6348C29.4813 24.383 29.2079 23.9839 29.0831 23.4368C28.9651 22.9199 29.0485 22.4679 29.3335 22.0812C29.626 21.6928 30.1062 21.3959 30.774 21.1911L32.3318 20.7115L32.3114 20.6216C32.2686 20.4343 32.1958 20.2892 32.093 20.1863C31.9884 20.0759 31.8575 20.0068 31.7002 19.979C31.549 19.9422 31.3675 19.9475 31.1562 19.9948C30.7861 20.0779 30.5181 20.2089 30.3527 20.3878C30.1944 20.565 30.1446 20.781 30.2028 21.0357L28.7527 21.3611C28.655 20.9341 28.68 20.5386 28.8273 20.1748C28.9748 19.8111 29.2287 19.498 29.5899 19.2359C29.9584 18.9721 30.4106 18.7801 30.9469 18.6597C31.4984 18.536 31.985 18.5292 32.4069 18.6393C32.8367 18.7476 33.1922 18.9671 33.4742 19.2976C33.7634 19.6264 33.9696 20.0606 34.0925 20.5999L34.841 23.8813L33.3003 24.2272L33.0178 23.5108C32.9853 23.7858 32.8186 24.0476 32.5182 24.2963C32.2232 24.5355 31.8645 24.7026 31.4416 24.7976ZM31.7611 23.3793C32.0935 23.3047 32.3475 23.1649 32.5229 22.9603C32.6969 22.7479 32.7473 22.4808 32.6737 22.1587L32.6046 21.8552L31.7389 22.1321C31.3681 22.2468 31.1143 22.3707 30.978 22.5036C30.8476 22.6276 30.8026 22.7794 30.8437 22.959C30.8897 23.1613 30.9882 23.2969 31.1388 23.3655C31.2895 23.4341 31.4969 23.4385 31.7611 23.3793Z" fill="#F4F4F4"/>
<path d="M38.7091 17.1071L39.0806 18.7363L38.5257 18.861C38.0271 18.9728 37.6618 19.1808 37.4294 19.4849C37.2046 19.7874 37.1554 20.2158 37.2818 20.7701L37.8379 23.2087L36.0931 23.6003L34.8145 17.9927L36.4572 17.6241L36.8672 18.7959L36.7087 18.8316C36.6987 18.4401 36.7988 18.0947 37.0084 17.7957C37.2238 17.4875 37.5619 17.2816 38.0228 17.1782C38.1284 17.1546 38.236 17.1383 38.345 17.1296C38.46 17.1116 38.5813 17.1042 38.7091 17.1071Z" fill="#F4F4F4"/>
<path d="M43.1183 22.1792C42.5746 22.3011 42.0752 22.2872 41.6203 22.1373C41.1654 21.9875 40.7751 21.7206 40.4494 21.3369C40.1295 20.9441 39.9022 20.4517 39.7672 19.8599C39.6305 19.2605 39.6241 18.7107 39.7482 18.2104C39.8705 17.7024 40.1106 17.2746 40.4676 16.9267C40.8327 16.577 41.3021 16.3378 41.876 16.209C42.2309 16.1293 42.574 16.1194 42.9051 16.1789C43.244 16.2368 43.5203 16.352 43.7342 16.5245L42.9655 13.1532L44.7101 12.7617L46.6423 21.235L44.9995 21.6034L44.745 20.9047C44.652 21.1933 44.4583 21.4572 44.1636 21.6967C43.8747 21.9269 43.5263 22.0877 43.1183 22.1792ZM43.1761 20.5006C43.4482 20.4396 43.6733 20.3301 43.8514 20.1719C44.0356 20.0046 44.1604 19.8033 44.2259 19.5682C44.2971 19.3238 44.3013 19.063 44.238 18.7858C44.173 18.5012 44.0563 18.2674 43.8876 18.0847C43.7264 17.9004 43.5272 17.7758 43.2902 17.7109C43.0592 17.6367 42.8074 17.6302 42.5356 17.6913C42.2635 17.7522 42.0395 17.8656 41.8628 18.0312C41.6861 18.1968 41.5652 18.3972 41.4998 18.6324C41.4419 18.8658 41.4446 19.1212 41.5077 19.3984C41.5709 19.6756 41.6795 19.9073 41.8328 20.0933C41.994 20.2776 42.1903 20.4068 42.4216 20.4809C42.6529 20.5551 42.9044 20.5616 43.1761 20.5006Z" fill="#F4F4F4"/>
<path d="M5.8102 9.20863C5.8065 8.694 5.93876 8.23983 6.20697 7.84625C6.47512 7.44495 6.8446 7.13122 7.31528 6.90517C7.79373 6.67136 8.33884 6.55227 8.95057 6.54798C9.57005 6.54364 10.105 6.64739 10.5557 6.85931C11.0063 7.07117 11.3531 7.37213 11.5959 7.76217C11.8465 8.15214 11.9738 8.61596 11.9776 9.15361L10.1076 9.16679C10.1055 8.86724 9.99923 8.63376 9.78896 8.46621C9.57862 8.29104 9.2954 8.20469 8.93923 8.20723C8.55978 8.20992 8.25449 8.29272 8.02336 8.45565C7.79994 8.61851 7.68926 8.84201 7.69129 9.12622C7.69318 9.38735 7.7643 9.58654 7.90466 9.72384C8.04503 9.86113 8.26643 9.95939 8.56882 10.0187L9.86002 10.2746C10.6277 10.4229 11.1987 10.6877 11.5732 11.0691C11.9476 11.4429 12.1371 11.9676 12.142 12.6436C12.1459 13.189 12.0138 13.67 11.7458 14.0865C11.4777 14.4955 11.0966 14.8133 10.6027 15.0394C10.1164 15.2656 9.54427 15.381 8.88605 15.3857C8.25112 15.3902 7.69284 15.2866 7.21123 15.0748C6.73732 14.8631 6.36734 14.5623 6.10128 14.1725C5.84289 13.7748 5.7118 13.3111 5.70801 12.7811L7.57799 12.7679C7.58022 13.0752 7.69419 13.3124 7.91992 13.4799C8.14572 13.6472 8.46767 13.7294 8.88578 13.7265C9.31166 13.7235 9.64792 13.6444 9.89464 13.4889C10.1413 13.326 10.2636 13.11 10.2617 12.8412C10.26 12.6031 10.1967 12.4191 10.0719 12.2895C9.95483 12.1597 9.75286 12.0689 9.46593 12.0172L8.15158 11.7615C7.38391 11.6132 6.80107 11.3254 6.40306 10.8981C6.01282 10.4707 5.81519 9.90758 5.8102 9.20863Z" fill="#F4F4F4"/>
<path d="M17.002 9.41981L18.7907 9.40723L18.832 15.1679L17.1477 15.1798L17.027 14.5354C16.8506 14.7747 16.5964 14.9685 16.2645 15.1168C15.9404 15.265 15.6041 15.3404 15.2557 15.3428C14.5975 15.3475 14.0733 15.1476 13.6833 14.7432C13.3008 14.3311 13.1071 13.7718 13.1022 13.0652L13.0762 9.44752L14.8649 9.43494L14.8862 12.4074C14.8895 12.8759 14.9772 13.2209 15.1491 13.4425C15.3209 13.6564 15.5889 13.7619 15.9529 13.7594C16.3401 13.7567 16.6141 13.651 16.7753 13.4426C16.9442 13.2262 17.0268 12.8839 17.0235 12.4153L17.002 9.41981Z" fill="#F4F4F4"/>
<path d="M20.1938 17.9224L20.1328 9.39673L21.8169 9.38488L21.9149 10.087C22.0756 9.81703 22.3257 9.60022 22.6652 9.43649C23.0049 9.27283 23.3797 9.18955 23.7902 9.18662C24.3322 9.18279 24.8093 9.29853 25.2214 9.53375C25.6334 9.76897 25.9573 10.1085 26.1926 10.5523C26.4282 10.9885 26.548 11.5176 26.5524 12.1399C26.557 12.7465 26.4524 13.2889 26.2391 13.7666C26.0332 14.2366 25.7263 14.6075 25.3178 14.8791C24.917 15.1508 24.4262 15.2887 23.8456 15.2928C23.4428 15.2956 23.0706 15.2291 22.7289 15.0933C22.3873 14.9574 22.1306 14.7826 21.9587 14.5687L21.9826 17.9099L20.1938 17.9224ZM21.9538 12.2644C21.9558 12.5485 22.0157 12.8016 22.1335 13.0235C22.2587 13.2378 22.4265 13.4056 22.6365 13.5269C22.8542 13.6406 23.1024 13.6965 23.381 13.6945C23.6676 13.6925 23.911 13.6294 24.1114 13.505C24.3196 13.3807 24.4772 13.2106 24.5841 12.9947C24.6987 12.7789 24.755 12.5289 24.7529 12.2446C24.7509 11.9605 24.6911 11.7112 24.5733 11.497C24.4633 11.2827 24.3034 11.1148 24.0935 10.9934C23.8912 10.872 23.6469 10.8123 23.3604 10.8143C23.0817 10.8162 22.8344 10.8794 22.6184 11.0038C22.4101 11.1205 22.2448 11.2868 22.1225 11.5027C22.0079 11.7187 21.9517 11.9725 21.9538 12.2644Z" fill="#F4F4F4"/>
<path d="M30.2986 15.2352C29.7179 15.2393 29.1981 15.1124 28.7395 14.8544C28.2885 14.5965 27.9297 14.2419 27.6632 13.7905C27.4044 13.3314 27.2729 12.8063 27.2687 12.2148C27.2644 11.6157 27.3844 11.0887 27.6289 10.6338C27.8813 10.1711 28.2309 9.80764 28.6783 9.54336C29.1254 9.27903 29.6395 9.14482 30.2202 9.14073C30.8318 9.13645 31.3594 9.25942 31.8026 9.50983C32.2458 9.75248 32.5888 10.1034 32.8322 10.5626C33.0755 11.014 33.1995 11.5546 33.204 12.1845L33.2072 12.6338L28.213 12.692L28.2284 11.5974L31.4225 11.5749C31.4203 11.2677 31.314 11.0264 31.1036 10.8513C30.8932 10.6684 30.6061 10.5782 30.2422 10.5808C29.9403 10.5829 29.6927 10.6423 29.5 10.7589C29.3149 10.8754 29.177 11.0568 29.0858 11.3033C28.9944 11.542 28.9503 11.8496 28.9531 12.226C28.9567 12.7636 29.0681 13.1623 29.2867 13.422C29.5132 13.6739 29.8586 13.798 30.3233 13.7948C30.6639 13.7924 30.9462 13.7327 31.17 13.616C31.3935 13.4992 31.5357 13.3369 31.5962 13.1291L33.2339 13.1176C33.1379 13.7557 32.8239 14.2688 32.2924 14.6565C31.7609 15.0368 31.0964 15.2295 30.2986 15.2352Z" fill="#F4F4F4"/>
<path d="M38.2377 9.26925L38.2496 10.9398L37.6807 10.9438C37.1696 10.9474 36.7679 11.0731 36.4751 11.321C36.1904 11.5688 36.0502 11.977 36.0541 12.5453L36.0722 15.0454L34.2835 15.058L34.2422 9.30895L35.9264 9.29702L36.0746 10.5289L35.9119 10.53C35.9868 10.1454 36.1587 9.82926 36.4279 9.58158C36.7049 9.32615 37.0796 9.19676 37.552 9.19341C37.6603 9.19267 37.7688 9.19957 37.8773 9.21417C37.9933 9.22105 38.1137 9.2394 38.2377 9.26925Z" fill="#F4F4F4"/>
</g>
<defs>
<clipPath id="clip0_19_4">
<rect width="48" height="30.1935" fill="white"/>
</clipPath>
</defs>
</svg>
