<svg preserveAspectRatio="none" width="100%" height="100%" overflow="visible" style="display: block;" viewBox="0 0 137 137" fill="none" xmlns="http://www.w3.org/2000/svg">
<g id="Traced Image" opacity="0.1">
<path id="Vector" fill-rule="evenodd" clip-rule="evenodd" d="M63.174 5.19495C63.1486 5.22046 62.7551 5.25906 62.2995 5.28075C61.8439 5.30244 61.276 5.35031 61.0375 5.38715C60.799 5.42393 60.2673 5.48077 59.856 5.5133C59.4446 5.5459 58.9036 5.60092 58.6536 5.63558C58.4037 5.67024 58.0083 5.71926 57.775 5.74452C57.5417 5.76985 57.2691 5.83372 57.1691 5.88655C57.0532 5.94775 56.816 5.98532 56.5147 5.99011C56.2548 5.99429 55.9907 6.02519 55.9279 6.05882C55.8651 6.09239 55.6772 6.1199 55.5104 6.1199C55.3435 6.1199 55.1901 6.14716 55.1695 6.18049C55.1489 6.21382 55.0369 6.24108 54.9206 6.24108C54.8042 6.24108 54.6304 6.2818 54.5342 6.33155C54.4379 6.38129 54.3148 6.40492 54.2604 6.38408C54.206 6.36324 54.1021 6.37554 54.0294 6.41135C53.9566 6.44722 53.788 6.49109 53.6547 6.50884C53.0454 6.59003 52.8943 6.62112 52.8631 6.67165C52.8447 6.70146 52.7389 6.72582 52.628 6.72582C52.5172 6.72582 52.3494 6.76581 52.2552 6.81465C52.1611 6.86349 52.0245 6.88857 51.9519 6.87034C51.8793 6.8521 51.8017 6.86664 51.7794 6.90269C51.7571 6.93875 51.6467 6.96819 51.534 6.96819C51.4213 6.96819 51.3122 6.99546 51.2916 7.02879C51.271 7.06211 51.1619 7.08938 51.0492 7.08938C50.9365 7.08938 50.8275 7.11665 50.8069 7.14997C50.7863 7.1833 50.7051 7.21056 50.6265 7.21056C50.548 7.21056 50.3591 7.26395 50.2069 7.32914C50.0548 7.3944 49.7594 7.47954 49.5506 7.51844C49.3417 7.55728 49.1163 7.61017 49.0497 7.63605C48.983 7.66186 48.724 7.7413 48.474 7.81255C48.2241 7.88375 47.9105 7.97324 47.7772 8.01136C47.6439 8.04947 47.5076 8.0994 47.4743 8.1223C47.4176 8.16126 46.9836 8.30269 46.3533 8.48762C46.2033 8.53161 46.0261 8.60007 45.9595 8.6397C45.8928 8.67933 45.7311 8.73059 45.6002 8.75368C45.4693 8.7767 45.2512 8.8456 45.1155 8.90686C44.9798 8.96805 44.7597 9.05276 44.6264 9.095C44.4931 9.13729 44.2166 9.24866 44.0118 9.34246C43.8071 9.43631 43.5863 9.51308 43.5213 9.51308C43.3911 9.51308 43.0419 9.67214 42.9909 9.75461C42.9732 9.78327 42.8704 9.82441 42.7625 9.84598C42.6545 9.86761 42.4572 9.93523 42.3239 9.99631C41.795 10.2387 41.5256 10.3519 41.2938 10.4292C41.1605 10.4736 40.9424 10.5781 40.8091 10.6613C40.5383 10.8302 40.1971 10.965 40.0365 10.9664C39.9782 10.9669 39.9305 10.9946 39.9305 11.0279C39.9305 11.0612 39.8904 11.0885 39.8414 11.0885C39.7925 11.0885 39.6561 11.143 39.5384 11.2097C39.4208 11.2763 39.2283 11.3854 39.1107 11.452C38.993 11.5187 38.8596 11.5732 38.8142 11.5732C38.7687 11.5732 38.7159 11.6141 38.6967 11.6641C38.6775 11.7141 38.6179 11.755 38.5641 11.755C38.5104 11.755 38.271 11.8545 38.0321 11.9762C37.4503 12.2723 37.3354 12.329 37.0586 12.4563C36.9288 12.5161 36.7543 12.6281 36.6711 12.7053C36.5878 12.7825 36.485 12.8457 36.4427 12.8457C36.3501 12.8457 35.4558 13.3102 35.3207 13.4285C35.2681 13.4745 35.1999 13.5128 35.1692 13.5135C35.1385 13.5143 35.0452 13.5682 34.9619 13.6334C34.8786 13.6986 34.7627 13.7525 34.7044 13.7532C34.6461 13.754 34.5983 13.777 34.5983 13.8044C34.5983 13.8647 34.1315 14.177 34.0324 14.183C33.9937 14.1853 33.7985 14.2929 33.5985 14.4219C33.3986 14.551 33.1123 14.731 32.9623 14.8218C32.8124 14.9127 32.1624 15.3368 31.5179 15.7644C30.8734 16.192 30.3213 16.5418 30.2909 16.5418C30.2605 16.5418 30.2357 16.5652 30.2357 16.5938C30.2357 16.6374 29.8187 16.9427 29.439 17.177C29.2825 17.2736 28.8869 17.585 28.7277 17.7369C28.6482 17.8128 28.5565 17.8749 28.524 17.8749C28.4529 17.8749 28.1193 18.1337 27.8405 18.4051C27.7293 18.5134 27.6082 18.602 27.5713 18.602C27.5344 18.602 27.3908 18.711 27.2521 18.8444C27.1133 18.9777 26.9676 19.0867 26.9281 19.0867C26.8887 19.0867 26.8137 19.1518 26.7616 19.2314C26.7095 19.3109 26.5732 19.4339 26.4587 19.5047C26.3442 19.5755 26.1315 19.7422 25.986 19.8751C25.8406 20.008 25.7022 20.1168 25.6784 20.1168C25.6547 20.1168 25.5311 20.219 25.4038 20.344C25.2764 20.469 25.0998 20.6266 25.0111 20.6942C24.9224 20.7618 24.599 21.0481 24.2924 21.3304C23.9858 21.6127 23.679 21.8831 23.6106 21.9312C23.3863 22.0889 20.1111 25.3487 20.0172 25.5077C19.9668 25.5931 19.8313 25.7246 19.7161 25.8002C19.6009 25.8757 19.4599 26.0144 19.4027 26.1084C19.3053 26.2686 18.9082 26.7222 18.0111 27.6982C17.8028 27.9248 17.6324 28.1364 17.6324 28.1683C17.6324 28.2002 17.5233 28.3398 17.39 28.4786C17.2567 28.6173 17.1476 28.7419 17.1476 28.7554C17.1476 28.7688 16.8681 29.1229 16.5266 29.5421C15.9043 30.3059 15.7047 30.5682 15.2226 31.2568C15.0803 31.46 14.9031 31.6917 14.8288 31.7716C14.7545 31.8515 14.6255 32.0177 14.5422 32.1409C14.4588 32.2641 14.3294 32.4419 14.2543 32.5361C14.1794 32.6302 14.118 32.7332 14.118 32.7648C14.118 32.7965 14.0635 32.8719 13.9968 32.9321C13.9302 32.9924 13.8756 33.0633 13.8756 33.0896C13.8756 33.1159 13.6235 33.5106 13.3152 33.9667C13.0069 34.4228 12.7278 34.8402 12.695 34.8941C12.6621 34.9481 12.5112 35.1832 12.3595 35.4164C12.2078 35.6497 12.0357 35.936 11.9772 36.0527C11.9186 36.1693 11.8189 36.3465 11.7556 36.4465C11.6923 36.5465 11.6023 36.6965 11.5555 36.7798C11.348 37.1498 11.1209 37.5625 10.9554 37.8704C10.8569 38.0537 10.7432 38.2446 10.7027 38.2946C10.6622 38.3446 10.5806 38.4809 10.5213 38.5976C10.4621 38.7142 10.3674 38.8914 10.3109 38.9914C10.2545 39.0914 10.1336 39.3061 10.0424 39.4686C9.95117 39.6311 9.87652 39.8313 9.87652 39.9134C9.87652 39.9955 9.82338 40.108 9.75843 40.1633C9.62985 40.2728 9.2706 40.9047 9.2706 41.0213C9.2706 41.061 9.22139 41.1658 9.16129 41.2543C9.10118 41.3428 8.99999 41.5378 8.93655 41.6878C8.87305 41.8378 8.76271 42.0559 8.69139 42.1725C8.62007 42.2892 8.52591 42.4937 8.4821 42.627C8.43829 42.7603 8.31341 43.0602 8.20459 43.2935C8.09576 43.5268 7.90556 43.9494 7.78183 44.2327C7.6581 44.5159 7.5062 44.8633 7.44427 45.0046C7.38229 45.1459 7.33163 45.2972 7.33163 45.3409C7.33163 45.3845 7.306 45.4462 7.27461 45.4779C7.24329 45.5095 7.13131 45.7945 7.0257 46.111C6.92015 46.4276 6.81653 46.7139 6.79539 46.7473C6.75297 46.8142 6.72146 46.8957 6.39675 47.7773C6.13868 48.478 5.69963 49.7942 5.54784 50.3222C5.49034 50.5222 5.40793 50.7676 5.36473 50.8676C5.26542 51.0972 5.08982 51.799 5.0265 52.2191C4.99984 52.3959 4.9404 52.6004 4.89441 52.6735C4.79807 52.8267 4.7056 53.1367 4.60169 53.6548C4.56158 53.8548 4.48832 54.1547 4.43894 54.3214C4.27073 54.8887 4.1178 55.6808 4.06908 56.2362C4.04684 56.4906 3.98982 56.7437 3.94183 56.8016C3.89397 56.8592 3.83277 57.0405 3.80574 57.2044C3.77878 57.3683 3.72952 57.6456 3.69631 57.8206C3.63384 58.1501 3.5538 58.6031 3.44746 59.2294C3.41353 59.4293 3.3716 59.7701 3.35427 59.9868C3.33688 60.2034 3.29767 60.4066 3.26701 60.4382C3.23641 60.4699 3.21133 60.6557 3.21133 60.8512C3.21133 61.0467 3.18673 61.2525 3.15674 61.3087C3.12668 61.3648 3.0856 61.8422 3.06548 62.3697C3.04349 62.9457 2.99925 63.3812 2.95478 63.4603C2.87831 63.5962 2.83099 64.1877 2.72107 66.3793C2.63709 68.0548 2.63812 70.8451 2.72332 72.4688C2.76088 73.1854 2.80578 74.1192 2.82311 74.5441C2.84038 74.9691 2.87716 75.3167 2.90485 75.3167C2.98635 75.3167 3.0853 76.017 3.11899 76.8315C3.13613 77.2481 3.17691 77.7798 3.20951 78.0131C3.24205 78.2464 3.29034 78.6145 3.31676 78.8311C3.34318 79.0477 3.38705 79.26 3.41425 79.303C3.4414 79.3459 3.50108 79.6867 3.54689 80.0604C3.59264 80.434 3.65844 80.8761 3.6931 81.0427C3.72776 81.2093 3.78072 81.4956 3.81077 81.6789C3.84083 81.8622 3.89536 82.0804 3.93196 82.1637C3.96856 82.247 4.02466 82.506 4.0566 82.7393C4.1121 83.1445 4.16488 83.4157 4.29254 83.9512C4.32436 84.0845 4.38004 84.3299 4.41634 84.4965C4.45257 84.6631 4.51165 84.9085 4.54764 85.0418C4.58357 85.1751 4.63974 85.3933 4.67234 85.5266C4.86351 86.3075 4.90889 86.4744 4.969 86.6172C5.02511 86.7506 5.08067 86.9888 5.13151 87.314C5.14975 87.4307 5.18404 87.5534 5.20774 87.5867C5.23137 87.62 5.34007 87.9336 5.4492 88.2835C5.66836 88.986 5.75986 89.27 5.89831 89.6772C5.94933 89.8271 6.02319 90.0725 6.06246 90.2225C6.10172 90.3725 6.18267 90.6042 6.24242 90.7375C6.30216 90.8708 6.43843 91.2366 6.54532 91.5503C6.65214 91.864 6.79084 92.2048 6.85361 92.3077C6.91633 92.4106 6.96771 92.5589 6.96783 92.6374C6.96795 92.7159 7.03133 92.9067 7.10871 93.0616C7.18603 93.2164 7.29897 93.493 7.35962 93.6763C7.46972 94.0092 7.58115 94.2659 8.05129 95.2702C8.18871 95.5637 8.30111 95.8362 8.30111 95.8759C8.30111 95.9409 9.27865 97.9753 9.48606 98.3419C9.5332 98.4252 9.71086 98.7661 9.88089 99.0993C10.0509 99.4326 10.2277 99.7734 10.2738 99.8567C10.4304 100.14 10.9832 101.159 11.0675 101.32C11.1137 101.408 11.1918 101.513 11.2411 101.554C11.2904 101.595 11.3307 101.662 11.3307 101.703C11.3307 101.816 11.503 102.136 11.6129 102.228C11.6668 102.272 11.7623 102.418 11.8253 102.552C11.9849 102.891 12.2254 103.293 12.5275 103.724C12.6691 103.926 12.785 104.112 12.785 104.137C12.785 104.206 13.1071 104.667 13.1938 104.722C13.2355 104.749 13.2697 104.795 13.2697 104.825C13.2697 104.855 13.3584 105.007 13.4666 105.162C13.575 105.317 13.7181 105.535 13.7847 105.646C13.8514 105.757 14.0695 106.071 14.2695 106.344C14.7994 107.068 14.9663 107.309 14.9663 107.351C14.9663 107.371 15.0848 107.527 15.2296 107.697C15.3744 107.867 15.5244 108.066 15.563 108.139C15.6016 108.212 15.7803 108.44 15.9601 108.647C16.1399 108.853 16.3231 109.093 16.3671 109.181C16.4446 109.335 16.6039 109.531 17.2385 110.253C17.4052 110.443 17.5805 110.656 17.6283 110.726C17.713 110.851 18.6273 111.885 18.7593 112.006C18.7959 112.039 18.9139 112.192 19.0215 112.346C19.1292 112.5 19.2833 112.662 19.364 112.705C19.4447 112.748 19.5108 112.803 19.5108 112.826C19.5108 112.849 19.6578 113.012 19.8374 113.186C20.017 113.361 20.2011 113.575 20.2464 113.662C20.332 113.827 21.9834 115.491 22.691 116.126C22.9139 116.326 23.3542 116.742 23.6694 117.05C23.9847 117.358 24.2664 117.61 24.2955 117.61C24.3247 117.61 24.4924 117.761 24.6683 117.946C24.8442 118.13 25.0497 118.296 25.1248 118.315C25.1999 118.334 25.3865 118.483 25.5394 118.646C25.6922 118.81 25.8375 118.943 25.8621 118.943C25.8869 118.943 26.05 119.08 26.2247 119.246C26.3994 119.413 26.5591 119.549 26.5796 119.549C26.6001 119.549 26.734 119.652 26.8771 119.777C27.2001 120.058 27.4778 120.279 27.6598 120.398C27.9936 120.616 28.6602 121.146 28.6602 121.194C28.6602 121.222 28.6944 121.248 28.736 121.25C28.7777 121.252 28.9753 121.374 29.1753 121.521C29.3752 121.668 29.6752 121.881 29.8418 121.995C30.0084 122.109 30.1967 122.26 30.2602 122.33C30.3237 122.4 30.408 122.458 30.4477 122.458C30.4874 122.458 30.5692 122.512 30.6295 122.579C30.6898 122.646 30.7596 122.7 30.7845 122.7C30.8095 122.7 31.1206 122.898 31.4758 123.139C31.8311 123.381 32.2579 123.652 32.4243 123.741C32.5907 123.83 32.827 123.98 32.9496 124.074C33.2226 124.284 33.2753 124.316 33.7371 124.562C33.9393 124.67 34.1207 124.783 34.1402 124.815C34.1596 124.846 34.2589 124.89 34.3607 124.913C34.4626 124.935 34.5606 124.992 34.5786 125.039C34.5966 125.086 34.6438 125.124 34.6836 125.124C34.7233 125.124 34.7885 125.156 34.8283 125.196C34.914 125.282 35.4543 125.583 36.4161 126.081C36.7994 126.279 37.2629 126.522 37.4462 126.619C37.6295 126.717 37.8254 126.787 37.8817 126.775C37.9411 126.762 38.0264 126.817 38.0856 126.908C38.1415 126.993 38.2213 127.063 38.263 127.063C38.3047 127.063 38.4052 127.115 38.4864 127.179C38.5677 127.243 38.7347 127.314 38.8576 127.337C38.9805 127.36 39.2346 127.472 39.4222 127.585C39.6099 127.697 39.7914 127.79 39.8257 127.79C39.86 127.79 40.0772 127.899 40.3085 128.032C40.5397 128.166 40.7681 128.275 40.8161 128.275C40.8642 128.275 41.0594 128.353 41.2501 128.448C41.4408 128.544 41.7058 128.656 41.8391 128.698C41.9725 128.74 42.177 128.821 42.2936 128.878C42.7027 129.077 43.0532 129.226 43.2934 129.304C43.4267 129.347 43.6448 129.43 43.7781 129.49C43.9114 129.549 44.2659 129.684 44.5658 129.789C44.8658 129.895 45.2046 130.024 45.3189 130.075C45.4332 130.127 45.665 130.204 45.834 130.246C46.003 130.288 46.3321 130.396 46.5654 130.486C46.7987 130.576 47.0441 130.663 47.1107 130.679C47.228 130.708 47.2812 130.727 47.6437 130.873C47.7369 130.91 47.8747 130.941 47.9497 130.941C48.0248 130.941 48.1122 130.963 48.1438 130.991C48.1974 131.037 48.3753 131.093 48.9436 131.243C49.0686 131.276 49.3458 131.358 49.5596 131.425C49.7733 131.492 49.9967 131.547 50.0559 131.547C50.1151 131.547 50.1783 131.571 50.1964 131.6C50.2145 131.629 50.397 131.665 50.6019 131.68C50.8572 131.699 50.998 131.739 51.0489 131.809C51.0935 131.87 51.2065 131.91 51.3316 131.91C51.4462 131.91 51.566 131.935 51.5976 131.965C51.6293 131.995 51.7642 132.034 51.8975 132.053C52.4109 132.126 52.5966 132.168 52.6288 132.22C52.6471 132.25 52.7816 132.274 52.9276 132.274C53.0736 132.274 53.21 132.301 53.2306 132.334C53.2512 132.368 53.3371 132.395 53.4216 132.395C53.506 132.395 53.8384 132.448 54.1602 132.513C54.4821 132.579 54.8549 132.63 54.9888 132.628C55.1226 132.625 55.3544 132.679 55.5038 132.746C55.6532 132.813 55.9254 132.887 56.1087 132.911C56.292 132.934 56.5919 132.979 56.7752 133.011C56.9585 133.043 57.4357 133.097 57.8356 133.131C58.2355 133.165 58.6635 133.235 58.7867 133.286C58.9099 133.338 59.0462 133.367 59.0896 133.351C59.1331 133.335 59.3323 133.347 59.5322 133.377C60.4009 133.509 61.0503 133.562 61.9862 133.574C62.5361 133.582 63.0356 133.609 63.0961 133.636C63.1607 133.664 63.2649 133.652 63.3481 133.608C63.4983 133.527 63.6015 133.537 64.3796 133.703C64.7609 133.784 65.2847 133.812 66.8336 133.832C68.8294 133.859 69.4152 133.82 69.8502 133.632C70.0899 133.529 70.5278 133.52 70.7363 133.615C70.8519 133.668 70.9316 133.666 71.0725 133.608C71.1837 133.562 71.2871 133.553 71.3327 133.585C71.375 133.615 71.7691 133.619 72.2264 133.594C73.3891 133.532 74.025 133.463 75.4984 133.242C75.7483 133.205 76.171 133.15 76.4376 133.12C76.7042 133.09 77.0859 133.037 77.2859 133.001C77.4858 132.965 77.7994 132.915 77.9827 132.89C78.166 132.864 78.4114 132.79 78.528 132.726C78.6805 132.641 78.8678 132.606 79.1945 132.601C79.4445 132.597 79.7853 132.564 79.9519 132.527C80.1186 132.491 80.3776 132.437 80.5276 132.407C80.6775 132.378 80.9638 132.311 81.1638 132.259C81.3637 132.207 81.6773 132.133 81.8606 132.095C82.3448 131.995 82.6518 131.91 82.8776 131.814C82.987 131.767 83.1356 131.728 83.2078 131.728C83.3338 131.728 84.3009 131.483 84.6782 131.355C84.7781 131.321 84.9417 131.272 85.0417 131.245C85.1417 131.218 85.3871 131.152 85.5871 131.098C85.787 131.044 86.0897 130.932 86.2596 130.849C86.4295 130.766 86.6259 130.698 86.696 130.698C86.9143 130.698 87.7385 130.455 88.2531 130.239C88.4662 130.149 88.8364 130.014 89.3438 129.841C89.5438 129.772 89.8816 129.637 90.0944 129.541C90.3073 129.444 90.5194 129.365 90.5657 129.365C90.612 129.365 90.9483 129.229 91.3131 129.062C91.6778 128.896 92.0111 128.758 92.0536 128.756C92.0962 128.753 92.281 128.673 92.4643 128.576C92.942 128.325 93.0091 128.296 93.3126 128.208C93.4626 128.165 93.6671 128.071 93.7671 128C93.867 127.929 94.0852 127.821 94.2518 127.76C94.4184 127.699 94.6565 127.585 94.7808 127.507C94.9051 127.429 95.0238 127.366 95.0445 127.366C95.1091 127.366 97.9914 125.918 98.0936 125.834C98.1468 125.791 98.2721 125.715 98.3721 125.667C98.4721 125.618 98.5675 125.562 98.5842 125.542C98.6153 125.505 98.6618 125.479 99.3142 125.132C99.5249 125.021 99.9349 124.782 100.225 124.602C100.516 124.423 100.781 124.276 100.815 124.276C100.849 124.276 100.886 124.253 100.897 124.225C100.924 124.158 101.552 123.74 101.925 123.542C102.088 123.455 102.271 123.339 102.332 123.284C102.392 123.23 102.469 123.185 102.503 123.185C102.537 123.185 102.614 123.13 102.674 123.064C102.734 122.997 102.814 122.941 102.85 122.939C102.887 122.936 103.031 122.848 103.17 122.742C103.749 122.301 104.393 121.852 104.444 121.852C104.475 121.852 104.578 121.77 104.674 121.67C104.77 121.57 104.872 121.488 104.901 121.488C104.956 121.488 105.325 121.208 105.636 120.928C105.738 120.836 105.854 120.761 105.894 120.761C105.934 120.761 105.975 120.74 105.987 120.715C106.014 120.653 106.934 119.913 106.984 119.913C107.024 119.913 107.452 119.556 107.734 119.289C107.817 119.209 107.994 119.074 108.128 118.987C108.261 118.901 108.533 118.665 108.731 118.463C108.93 118.261 109.116 118.095 109.145 118.095C109.173 118.095 109.382 117.915 109.61 117.695C109.837 117.475 110.086 117.263 110.164 117.225C110.241 117.186 110.388 117.041 110.489 116.903C110.59 116.764 110.705 116.642 110.745 116.631C110.785 116.62 111.144 116.297 111.543 115.914C111.942 115.531 112.369 115.137 112.492 115.039C112.614 114.941 112.732 114.814 112.754 114.757C112.775 114.699 113.25 114.184 113.808 113.612C114.366 113.04 114.823 112.557 114.823 112.539C114.823 112.521 114.905 112.413 115.005 112.299C115.105 112.185 115.187 112.073 115.187 112.049C115.187 112.025 115.285 111.939 115.404 111.858C115.523 111.777 115.697 111.6 115.792 111.464C115.886 111.329 116.061 111.112 116.181 110.983C116.301 110.854 116.398 110.726 116.398 110.7C116.398 110.673 116.533 110.506 116.698 110.329C117.226 109.758 117.468 109.467 117.635 109.2C117.724 109.057 117.837 108.925 117.886 108.906C117.934 108.887 117.974 108.837 117.974 108.794C117.974 108.751 118.056 108.628 118.156 108.521C118.256 108.414 118.337 108.314 118.337 108.297C118.337 108.234 118.963 107.431 119.012 107.431C119.041 107.431 119.065 107.397 119.065 107.355C119.065 107.313 119.174 107.136 119.307 106.96C119.44 106.784 119.617 106.539 119.7 106.415C119.782 106.29 120.013 105.943 120.212 105.643C120.411 105.343 120.66 104.975 120.764 104.825C120.869 104.675 121.007 104.471 121.07 104.371C121.133 104.271 121.293 104.025 121.424 103.826C121.556 103.626 121.761 103.298 121.881 103.098C122 102.898 122.166 102.626 122.249 102.493C122.331 102.359 122.424 102.191 122.455 102.12C122.486 102.048 122.539 101.972 122.574 101.95C122.609 101.929 122.72 101.742 122.822 101.535C123.061 101.051 123.437 100.38 123.532 100.268C123.62 100.165 125.146 97.1351 125.392 96.5767C125.547 96.222 125.729 95.8148 125.902 95.4335C125.94 95.3501 125.996 95.2411 126.026 95.1911C126.114 95.0468 126.397 94.3199 126.396 94.2402C126.396 94.2005 126.449 94.0778 126.513 93.9675C126.577 93.8573 126.703 93.5763 126.792 93.343C126.882 93.1097 126.99 92.8371 127.032 92.7371C127.075 92.6371 127.128 92.4871 127.151 92.4038C127.173 92.3205 127.215 92.1978 127.244 92.1312C127.378 91.8213 127.631 91.1407 127.683 90.9496C127.715 90.833 127.776 90.6557 127.818 90.5558C127.861 90.4558 127.931 90.2513 127.975 90.1013C128.018 89.9513 128.071 89.8014 128.093 89.768C128.114 89.7347 128.165 89.5848 128.206 89.4348C128.323 89.0049 128.651 87.9632 128.714 87.8228C128.745 87.7527 128.761 87.6269 128.75 87.5434C128.739 87.4598 128.759 87.3536 128.794 87.3073C128.829 87.261 128.921 87.0187 128.998 86.7687C129.075 86.5188 129.16 86.2461 129.187 86.1628C129.214 86.0795 129.253 85.8576 129.274 85.6697C129.295 85.4818 129.35 85.2773 129.397 85.2152C129.444 85.1532 129.483 85.0154 129.485 84.9091C129.486 84.8027 129.511 84.7007 129.54 84.6824C129.606 84.642 129.661 84.3462 129.717 83.7331C129.74 83.4798 129.797 83.2271 129.843 83.1714C129.927 83.0706 129.993 82.8287 130.093 82.2546C130.122 82.0879 130.176 81.8016 130.213 81.6183C130.285 81.2593 130.367 80.8155 130.458 80.2853C130.49 80.102 130.546 79.7748 130.583 79.5582C130.666 79.0816 130.684 78.3464 130.623 78.0056C130.583 77.7842 130.599 77.7299 130.759 77.5277C130.925 77.3192 130.941 77.2597 130.941 76.8353C130.941 76.5799 130.966 76.3451 130.997 76.3134C131.028 76.2818 131.068 76.0105 131.085 75.7106C131.103 75.4106 131.142 74.7699 131.172 74.2866C131.202 73.8034 131.244 72.7673 131.266 71.9841C131.288 71.2009 131.335 70.4102 131.37 70.2269C131.407 70.0365 131.419 69.621 131.399 69.2574C131.379 68.9075 131.337 67.9123 131.305 67.0458C131.247 65.4635 131.178 64.3538 131.066 63.2285C131.032 62.8952 130.981 62.3771 130.952 62.0772C130.923 61.7773 130.838 61.374 130.763 61.1809C130.671 60.9439 130.646 60.8062 130.686 60.7568C130.744 60.6861 130.723 60.4233 130.579 59.3808C130.488 58.72 130.332 57.8462 130.271 57.6496C130.24 57.5473 130.214 57.3923 130.214 57.3052C130.214 57.218 130.184 57.07 130.148 56.9762C130.112 56.8824 130.082 56.7169 130.081 56.6085C130.081 56.5001 130.056 56.3963 130.026 56.3777C129.996 56.3592 129.971 56.2427 129.971 56.1187C129.971 55.9948 129.931 55.8362 129.882 55.7663C129.833 55.6964 129.794 55.5608 129.795 55.465C129.797 55.3692 129.769 55.1613 129.733 55.003C129.697 54.8448 129.642 54.5993 129.611 54.4577C129.558 54.2199 129.527 54.0921 129.369 53.4579C129.338 53.333 129.281 53.1216 129.242 52.9883C129.203 52.855 129.157 52.6435 129.141 52.5184C129.124 52.3932 129.086 52.2757 129.056 52.2573C129.026 52.2388 129.002 52.1729 129.002 52.1108C129.002 52.0486 128.936 51.9192 128.855 51.823C128.766 51.7176 128.726 51.618 128.755 51.5721C128.805 51.4903 128.78 51.246 128.702 51.0493C128.675 50.9827 128.623 50.8519 128.585 50.7587C128.548 50.6655 128.517 50.522 128.517 50.4397C128.517 50.3576 128.493 50.2429 128.463 50.1851C128.354 49.9692 128.279 49.7647 128.148 49.3225C128.073 49.0725 127.957 48.8057 127.889 48.7294C127.798 48.6284 127.769 48.5248 127.782 48.3476C127.792 48.2139 127.773 48.0718 127.741 48.0318C127.708 47.9918 127.639 47.8364 127.588 47.6865C127.397 47.1339 127.232 46.682 127.157 46.5049C126.985 46.0969 126.823 45.6984 126.698 45.371C126.625 45.1805 126.514 44.9651 126.451 44.8921C126.387 44.8192 126.336 44.675 126.337 44.5718C126.337 44.4686 126.231 44.166 126.1 43.8994C125.752 43.1902 125.245 42.0759 125.245 42.0208C125.245 41.9694 124.535 40.5456 124.459 40.4456C124.434 40.4123 124.365 40.2542 124.305 40.0943C124.245 39.9344 124.132 39.7532 124.054 39.6917C123.976 39.6302 123.912 39.5467 123.912 39.5061C123.912 39.4152 123.273 38.1254 123.164 37.9951C123.12 37.9432 123.012 37.7493 122.924 37.5642C122.836 37.379 122.696 37.1642 122.614 37.0869C122.531 37.0096 122.447 36.8683 122.426 36.7729C122.405 36.6774 122.363 36.5842 122.333 36.5658C122.303 36.5472 122.177 36.3492 122.053 36.1257C121.929 35.9023 121.696 35.5238 121.536 35.2847C121.377 35.0457 121.246 34.8221 121.246 34.7879C121.246 34.7536 121.211 34.7039 121.169 34.6772C121.127 34.6506 121.038 34.5132 120.972 34.3719C120.906 34.2306 120.832 34.1148 120.808 34.1144C120.783 34.114 120.707 34.002 120.637 33.8656C120.567 33.7291 120.39 33.4966 120.242 33.3489C120.094 33.2012 119.973 33.0299 119.973 32.9683C119.973 32.9066 119.933 32.8223 119.883 32.781C119.833 32.7396 119.709 32.5593 119.606 32.3803C119.504 32.2012 119.372 32.0203 119.314 31.9784C119.256 31.9364 119.142 31.7794 119.061 31.6294C118.981 31.4794 118.789 31.2068 118.635 31.0235C118.481 30.8402 118.283 30.5743 118.194 30.4327C118.105 30.2911 118.007 30.1752 117.974 30.1752C117.942 30.1752 117.863 30.073 117.799 29.948C117.735 29.823 117.612 29.6546 117.525 29.5739C117.439 29.493 117.368 29.3965 117.368 29.3592C117.368 29.322 117.242 29.1699 117.089 29.0214C116.936 28.8728 116.752 28.6651 116.68 28.5598C116.608 28.4545 116.298 28.0804 115.989 27.7286C115.681 27.3768 115.429 27.0757 115.429 27.0597C115.429 27.0438 115.211 26.8043 114.945 26.5276C114.679 26.251 114.461 26.0051 114.46 25.9813C114.459 25.9226 110.535 21.9954 110.476 21.9944C110.451 21.9941 110.202 21.7759 109.924 21.5097C109.646 21.2435 109.398 21.0257 109.374 21.0257C109.35 21.0257 109.264 20.9541 109.183 20.8667C109.103 20.7793 108.859 20.5637 108.643 20.3877C108.426 20.2117 108.158 19.9833 108.048 19.8802C107.938 19.7771 107.828 19.6927 107.803 19.6927C107.779 19.6927 107.625 19.5563 107.461 19.3897C107.297 19.2231 107.133 19.0867 107.096 19.0867C107.059 19.0867 106.951 19.0049 106.855 18.9049C106.759 18.805 106.651 18.7232 106.615 18.7232C106.579 18.7232 106.441 18.615 106.308 18.4828C106.176 18.3506 106.042 18.2415 106.01 18.2404C105.979 18.2393 105.878 18.1668 105.787 18.0793C105.695 17.9918 105.567 17.8895 105.501 17.8521C105.216 17.6889 104.527 17.1904 104.399 17.0542C104.322 16.9723 104.238 16.9054 104.212 16.9054C104.138 16.9054 103.654 16.5664 103.527 16.4259C103.464 16.3564 103.38 16.2995 103.341 16.2995C103.301 16.2995 103.219 16.2449 103.159 16.1783C103.099 16.1116 103.017 16.0571 102.977 16.0571C102.937 16.0571 102.856 16.0026 102.795 15.9359C102.735 15.8693 102.656 15.8144 102.619 15.8141C102.583 15.8138 102.39 15.6911 102.191 15.5414C101.991 15.3918 101.785 15.2694 101.732 15.2694C101.678 15.2694 101.477 15.1467 101.284 14.9967C101.091 14.8468 100.896 14.7241 100.851 14.7241C100.806 14.7241 100.68 14.6484 100.571 14.5558C100.461 14.4633 100.29 14.3475 100.19 14.2983C100.09 14.2492 99.8951 14.134 99.757 14.0424C99.6188 13.9507 99.4846 13.8758 99.4588 13.8758C99.4329 13.8758 99.3687 13.837 99.3161 13.7896C99.2634 13.7421 99.0159 13.5954 98.766 13.4634C98.516 13.3313 98.1752 13.1478 98.0086 13.0555C97.8419 12.9631 97.5242 12.798 97.3024 12.6884C97.0806 12.579 96.8837 12.4643 96.8648 12.4337C96.8201 12.3615 94.7508 11.3309 94.6504 11.3309C94.6084 11.3309 94.3515 11.2193 94.0797 11.0828C93.8077 10.9464 93.4762 10.7859 93.3429 10.7262C92.6579 10.4191 92.5236 10.3614 92.4941 10.3614C92.4763 10.3614 92.2312 10.2523 91.9493 10.119C91.6673 9.98571 91.4096 9.87664 91.3765 9.87664C91.3434 9.87664 91.1997 9.82423 91.0572 9.76018C90.5063 9.51266 90.3415 9.44789 89.9693 9.33294C89.7576 9.26756 89.5303 9.17316 89.4641 9.12311C89.398 9.07312 89.2957 9.03131 89.2369 9.03028C89.1781 9.02919 89.0827 9.00374 89.0248 8.97363C88.967 8.94357 88.797 8.88347 88.647 8.84014C88.497 8.79676 88.2849 8.71229 88.1756 8.65243C88.0662 8.59256 87.9403 8.5436 87.8958 8.5436C87.7886 8.5436 86.6948 8.18265 86.6171 8.12164C86.5838 8.09552 86.4747 8.05989 86.3748 8.04256C86.0416 7.98482 85.4061 7.80298 85.3477 7.74881C85.316 7.71936 85.2154 7.69531 85.1241 7.69531C85.0327 7.69531 84.9431 7.67119 84.9248 7.64168C84.9067 7.61223 84.8164 7.57364 84.7243 7.55594C84.4297 7.49941 83.8357 7.34823 83.6481 7.28212C83.5481 7.24686 83.3436 7.18724 83.1936 7.14961C83.0437 7.11198 82.8334 7.05436 82.7264 7.02158C82.6193 6.98879 82.3978 6.96813 82.2342 6.97559C82.0065 6.98595 81.8973 6.9582 81.7693 6.85749C81.6741 6.78266 81.5155 6.72582 81.4016 6.72582C81.2914 6.72582 81.1861 6.70146 81.1677 6.67165C81.1493 6.64184 81.0318 6.60234 80.9066 6.58379C80.7815 6.56531 80.5291 6.52035 80.3458 6.48388C80.1625 6.4474 79.8957 6.40559 79.7529 6.39093C79.6101 6.37626 79.4415 6.33658 79.3782 6.3027C79.3149 6.26883 79.1713 6.24108 79.0592 6.24108C78.947 6.24108 78.8293 6.2163 78.7976 6.18606C78.7439 6.13468 78.5865 6.1102 77.7403 6.02162C77.557 6.00241 77.3743 5.95993 77.3342 5.92715C77.2942 5.89431 77.2085 5.88431 77.1439 5.90479C77.0793 5.92533 76.9076 5.90067 76.7623 5.85008C76.617 5.79948 76.3566 5.75773 76.1836 5.75725C76.0106 5.75676 75.8522 5.72907 75.8316 5.69575C75.811 5.66242 75.5929 5.63516 75.3469 5.63516C75.1009 5.63516 74.8828 5.60789 74.8622 5.57456C74.8416 5.54124 74.6559 5.513 74.4496 5.51179C74.2433 5.51064 73.7336 5.46695 73.317 5.41478C72.9005 5.36267 72.1643 5.29365 71.681 5.26154C70.5909 5.18895 63.2371 5.13145 63.174 5.19495ZM52.5641 24.0212C52.5307 24.0344 52.1899 24.145 51.8066 24.267C48.0361 25.468 43.9603 27.4513 40.3546 29.8396C34.9153 33.4425 30.2657 38.0932 26.6917 43.5056C24.7785 46.4029 23.0155 49.8165 21.9037 52.7762C21.8099 53.0262 21.7171 53.2443 21.6974 53.261C21.6779 53.2776 21.6569 53.3322 21.6509 53.3822C21.6448 53.4322 21.4748 53.9502 21.273 54.5334C18.7103 61.9393 18.036 70.3021 19.3652 78.1949C20.6517 85.8344 23.7897 93.0956 28.478 99.2811C28.9715 99.9322 29.3861 100.463 29.4491 100.523C29.4664 100.54 29.6706 100.785 29.903 101.069C30.1354 101.352 30.353 101.614 30.3866 101.651C30.4202 101.688 30.625 101.919 30.8416 102.165C31.9699 103.445 33.6667 105.14 34.9619 106.28C35.2452 106.53 35.4906 106.748 35.5072 106.765C35.6974 106.961 37.1704 108.14 38.0541 108.805C42.1163 111.858 46.4545 114.142 51.6249 115.95C52.6455 116.306 53.2166 116.363 53.7526 116.161C54.1721 116.002 54.5528 115.637 54.768 115.187L54.9272 114.853L54.9455 112.478C54.9639 110.105 54.9638 110.103 54.8184 109.685C54.5645 108.955 54.0595 108.325 53.4949 108.034C53.3737 107.971 52.992 107.814 52.6466 107.684C48.9852 106.306 45.1992 104.135 41.9603 101.558C41.5169 101.205 40.8523 100.657 40.7788 100.584C40.7621 100.567 40.4894 100.325 40.1729 100.045C38.756 98.7931 36.8874 96.8105 35.539 95.1284C32.7186 91.6099 30.3554 87.2895 28.9447 83.0726C28.4284 81.5294 28.3258 81.1851 28.033 80.0126C27.1669 76.545 26.8251 73.7627 26.8235 70.1663C26.8224 67.5818 26.9442 66.0108 27.3308 63.6223C28.4453 56.7378 31.4577 50.0758 35.893 44.6871C36.1947 44.3205 36.4699 43.9904 36.5046 43.9535C36.5392 43.9165 36.7435 43.6847 36.9585 43.4384C37.4887 42.8309 39.7109 40.6029 40.2916 40.0967C44.1723 36.7137 48.0857 34.3334 52.6757 32.5645C53.8445 32.114 54.2299 31.794 54.6725 30.9069L54.9272 30.3965V27.9076C54.9272 25.4614 54.9249 25.4136 54.7921 25.126C54.5901 24.6883 54.3368 24.4025 53.9773 24.2066C53.7049 24.0582 53.5746 24.0283 53.1397 24.0141C52.8564 24.0048 52.5974 24.0081 52.5641 24.0212ZM80.2442 24.094C79.8803 24.2229 79.471 24.61 79.2737 25.0118L79.1036 25.3581L79.0859 27.7733C79.0702 29.9033 79.0801 30.2254 79.1699 30.5C79.3181 30.9532 79.4637 31.2197 79.7661 31.5909C79.9137 31.7722 80.0159 31.9412 79.9933 31.9664C79.9705 31.9917 79.9819 31.9953 80.0186 31.9744C80.0553 31.9535 80.174 32.0017 80.2822 32.0817C80.3905 32.1615 81.0293 32.4449 81.7018 32.7113C84.8381 33.9539 87.6097 35.4643 90.4193 37.4618C90.7442 37.6928 91.0101 37.9066 91.0101 37.9367C91.0101 37.9669 91.0346 37.9848 91.0646 37.9765C91.1355 37.9567 92.5971 39.1164 93.5247 39.9284C94.2208 40.5378 96.0392 42.3201 96.6795 43.0208C98.0753 44.548 99.2823 46.105 100.555 48.0197C104.274 53.6151 106.425 59.7903 107.078 66.7428C107.185 67.883 107.186 72.3137 107.079 73.4989C106.387 81.1606 103.744 88.1004 99.2025 94.1765C94.5998 100.334 88.369 105.019 81.097 107.79C80.2957 108.096 79.8363 108.429 79.5008 108.948C79.0812 109.597 79.0634 109.748 79.0847 112.49L79.1036 114.914L79.2821 115.267C79.4763 115.65 79.7225 115.898 80.1203 116.11C80.3342 116.224 80.4703 116.247 80.9517 116.246C81.4823 116.246 81.5938 116.223 82.3756 115.953C84.585 115.19 86.0722 114.579 88.0939 113.605C88.7061 113.309 89.2352 113.085 89.2696 113.107C89.3041 113.128 89.3159 113.119 89.2961 113.087C89.2762 113.055 89.6045 112.842 90.0258 112.614C94.0895 110.415 97.717 107.699 101.071 104.344C102.665 102.748 102.815 102.588 103.803 101.432C110.386 93.7249 114.362 84.0972 115.187 73.8625C115.358 71.7382 115.328 67.9254 115.121 65.7128C114.412 58.1102 111.987 50.9354 107.936 44.4535C105.175 40.036 101.391 35.7795 97.3117 32.5036C92.8576 28.9264 87.8366 26.1628 82.56 24.3839C81.5312 24.037 81.3569 23.9953 80.9517 23.9996C80.7018 24.0022 80.3834 24.0447 80.2442 24.094ZM64.2464 38.0574C63.8231 38.2215 63.384 38.6293 63.1653 39.0614L62.986 39.4156L62.9688 42.7785L62.9517 46.1413L61.9691 46.3343C60.168 46.6878 58.8896 47.1123 57.3509 47.8675C52.9657 50.0199 50.286 53.7634 49.8683 58.3205C49.6649 60.5396 50.0219 63.1308 50.7823 64.9537C50.9147 65.2712 51.029 65.5583 51.0362 65.5916C51.0434 65.6249 51.066 65.6658 51.0866 65.6825C51.107 65.6991 51.1859 65.8355 51.2619 65.9854C51.4113 66.2807 51.8972 67.0207 52.1961 67.4084C52.5437 67.8591 53.5312 68.7936 54.1352 69.2434C56.6226 71.0955 60.0048 72.229 65.6657 73.1077C69.2565 73.6651 71.3008 74.1753 72.8125 74.8916C75.0581 75.9555 75.9795 77.269 76.1614 79.6653C76.4224 83.1039 74.6918 85.7129 71.3175 86.9676C69.9837 87.4636 68.6004 87.652 66.6847 87.5987C62.6903 87.4876 60.1003 86.3562 58.5665 84.0523C57.9626 83.1449 57.6103 82.2993 57.2557 80.9047C57.1577 80.5192 57.011 80.0904 56.9297 79.9517C56.7389 79.626 56.3489 79.2757 55.9949 79.112C55.7236 78.9866 55.6293 78.9821 52.9751 78.9676C50.4861 78.954 50.2106 78.9624 49.9651 79.0588C49.2947 79.3222 48.854 79.8358 48.7119 80.5194C48.6523 80.8065 48.6659 80.951 48.8298 81.7615C50.1735 88.4097 54.6852 92.545 61.9935 93.827C62.471 93.9107 62.8829 93.9792 62.9087 93.9792C62.9345 93.9792 62.9559 95.4721 62.9561 97.2967C62.9562 99.2675 62.9804 100.701 63.0155 100.827C63.1169 101.192 63.4582 101.691 63.7644 101.922C64.3113 102.335 64.4409 102.35 67.1366 102.329L69.53 102.311L69.8633 102.152C70.4335 101.88 70.8237 101.408 70.9816 100.798C71.0602 100.495 71.0751 99.9234 71.0751 97.2125V93.9878L71.4235 93.9184C74.8664 93.2323 77.4049 92.1021 79.6399 90.2607C82.4573 87.9395 84.183 84.7944 84.5941 81.2318C84.6875 80.4226 84.6289 77.7866 84.4998 76.9895C84.164 74.9155 83.5319 73.2438 82.5695 71.8847C82.1388 71.2763 81.1784 70.2748 80.5579 69.7869C77.9949 67.7716 74.3859 66.5554 68.2879 65.652C63.2983 64.9128 60.8544 64.0911 59.4855 62.6924C58.5382 61.7244 58.1987 60.6943 58.2042 58.8052C58.207 57.8289 58.2238 57.6536 58.3637 57.1342C58.6209 56.1801 59.0678 55.3913 59.7293 54.7243C61.1636 53.2778 63.2865 52.5814 66.258 52.5824C68.4986 52.5832 69.999 52.8732 71.4084 53.578C71.9107 53.8292 72.7111 54.3825 72.7111 54.4786C72.7111 54.5088 72.7444 54.5334 72.7852 54.5334C72.8888 54.5334 73.396 55.0883 73.7546 55.5938C74.1642 56.1714 74.5377 56.9293 74.8292 57.7748C75.0891 58.5284 75.2123 58.7478 75.5552 59.0665C75.8493 59.3399 76.1326 59.4787 76.5566 59.5571C77.0111 59.6411 80.999 59.6456 81.4368 59.5626C82.3777 59.3841 83.0213 58.6492 83.0287 57.7448C83.0371 56.7209 82.0652 54.0778 81.1348 52.5945C80.132 50.9955 78.7109 49.5763 77.0967 48.5617C75.6094 47.6268 73.3741 46.7742 71.4538 46.4096L71.0751 46.3377L71.0744 43.0584C71.0737 39.6397 71.0621 39.4629 70.8069 38.9697C70.652 38.6702 70.2355 38.2787 69.892 38.1097L69.5906 37.9613L67.076 37.9484C64.6828 37.936 64.5462 37.9412 64.2464 38.0574Z" fill="var(--fill-0, black)"/>
</g>
</svg>
